<svg width="23" height="23" viewBox="0 0 23 23" fill="none" xmlns="http://www.w3.org/2000/svg">
<path d="M2.50004 0H13.5C14.878 0 16 1.122 16 2.49998V8.49998C16 8.77598 15.776 8.99999 15.5 8.99999C15.224 8.99999 15 8.77598 15 8.49998V2.49998C15 1.67297 14.327 0.999984 13.5 0.999984H2.49994C1.67293 0.999984 0.999945 1.67297 0.999945 2.49998V20.5C0.999945 21.327 1.67293 22 2.49994 22H13.5C14.327 22 15 21.327 15 20.5V14.5C15 14.224 15.224 14 15.5 14C15.776 14 16 14.224 16 14.5V20.5C16 21.878 14.878 23 13.5 23H2.50004C1.12205 23 5.43594e-05 21.878 5.43594e-05 20.5V2.49998C7.62939e-06 1.122 1.12201 0 2.50004 0Z" fill="#A5A5A5"/>
<path d="M6.50001 11H22.5C22.776 11 23 11.224 23 11.5C23 11.776 22.776 12 22.5 12H6.50001C6.22401 12 6 11.776 6 11.5C6 11.224 6.22401 11 6.50001 11Z" fill="#A5A5A5"/>
<path d="M6.14698 11.148L9.14698 8.14799C9.34198 7.95299 9.65899 7.95299 9.85399 8.14799C10.049 8.34299 10.049 8.66 9.85399 8.855L7.208 11.501L9.85399 14.147C10.049 14.342 10.049 14.659 9.85399 14.854C9.75598 14.951 9.62801 15 9.49999 15C9.37198 15 9.24401 14.951 9.14698 14.855L6.14698 11.8551C5.95198 11.66 5.95198 11.343 6.14698 11.148Z" fill="#A5A5A5"/>
</svg>
