<svg width="28" height="27" viewBox="0 0 28 27" fill="none" xmlns="http://www.w3.org/2000/svg">
<path fill-rule="evenodd" clip-rule="evenodd" d="M13.9403 0.263123L18.6 8.99999H27.284L20.0805 16.8037L21.9307 26.0546L14 21.1742L6.2304 25.9554L7.45014 16.8074L0.843872 8.99999H9.86312L13.9403 0.263123ZM14.0596 4.73685L11.1368 11H5.15609L9.54982 16.1926L8.76956 22.0445L14 18.8258L19.0693 21.9454L17.9194 16.1963L22.716 11H17.4L14.0596 4.73685Z" fill="#CAD0D7"/>
<path fill-rule="evenodd" clip-rule="evenodd" d="M13.9403 0.263123L18.6 8.99999H27.284L20.0805 16.8037L21.9307 26.0546L14 21.1742L6.2304 25.9554L7.45014 16.8074L0.843872 8.99999H9.86312L13.9403 0.263123ZM14.0596 4.73685L11.1368 11H5.15609L9.54982 16.1926L8.76956 22.0445L14 18.8258L19.0693 21.9454L17.9194 16.1963L22.716 11H17.4L14.0596 4.73685Z" fill="#CAD0D7"/>
<path fill-rule="evenodd" clip-rule="evenodd" d="M13.9403 0.263123L18.6 8.99999H27.284L20.0805 16.8037L21.9307 26.0546L14 21.1742L6.2304 25.9554L7.45014 16.8074L0.843872 8.99999H9.86312L13.9403 0.263123ZM14.0596 4.73685L11.1368 11H5.15609L9.54982 16.1926L8.76956 22.0445L14 18.8258L19.0693 21.9454L17.9194 16.1963L22.716 11H17.4L14.0596 4.73685Z" fill="#CAD0D7"/>
</svg>
