<svg width="23" height="15" viewBox="0 0 23 15" fill="none" xmlns="http://www.w3.org/2000/svg">
<path fill-rule="evenodd" clip-rule="evenodd" d="M23 5H0V2H23V5Z" fill="black"/>
<path fill-rule="evenodd" clip-rule="evenodd" d="M23 13H0V10H23V13Z" fill="black"/>
<path d="M10 3.5C10 5.433 8.433 7 6.5 7C4.567 7 3 5.433 3 3.5C3 1.567 4.567 0 6.5 0C8.433 0 10 1.567 10 3.5Z" fill="white"/>
<path fill-rule="evenodd" clip-rule="evenodd" d="M6.5 5C7.32843 5 8 4.32843 8 3.5C8 2.67157 7.32843 2 6.5 2C5.67157 2 5 2.67157 5 3.5C5 4.32843 5.67157 5 6.5 5ZM6.5 7C8.433 7 10 5.433 10 3.5C10 1.567 8.433 0 6.5 0C4.567 0 3 1.567 3 3.5C3 5.433 4.567 7 6.5 7Z" fill="black"/>
<path d="M21 11.5C21 13.433 19.433 15 17.5 15C15.567 15 14 13.433 14 11.5C14 9.567 15.567 8 17.5 8C19.433 8 21 9.567 21 11.5Z" fill="white"/>
<path fill-rule="evenodd" clip-rule="evenodd" d="M17.5 13C18.3284 13 19 12.3284 19 11.5C19 10.6716 18.3284 10 17.5 10C16.6716 10 16 10.6716 16 11.5C16 12.3284 16.6716 13 17.5 13ZM17.5 15C19.433 15 21 13.433 21 11.5C21 9.567 19.433 8 17.5 8C15.567 8 14 9.567 14 11.5C14 13.433 15.567 15 17.5 15Z" fill="black"/>
</svg>
